<?xml version="1.0" standalone="no"?>
<!DOCTYPE svg PUBLIC "-//W3C//DTD SVG 20010904//EN"
 "http://www.w3.org/TR/2001/REC-SVG-20010904/DTD/svg10.dtd">
<svg version="1.0" xmlns="http://www.w3.org/2000/svg"
 width="512.000000pt" height="512.000000pt" viewBox="0 0 512.000000 512.000000"
 preserveAspectRatio="xMidYMid meet">
<defs>
  <linearGradient id="gradientY" gradientTransform="rotate(387)">
      <stop offset="0%" stop-color="#1F51FF"/>
      <stop offset="100%" stop-color="rgb(249, 161, 78)"/>
  </linearGradient>
</defs>
<g transform="translate(0.000000,512.000000) scale(0.100000,-0.100000)"
fill="url(#gradientY)" stroke="none">
<path d="M4234 3989 c-3 -6 -9 -40 -12 -76 -3 -42 -9 -62 -16 -59 -89 40 -169
68 -203 73 l-42 6 -11 -44 c-11 -41 -9 -123 5 -180 7 -25 2 -28 -162 -102 -92
-41 -188 -81 -213 -87 -130 -34 -354 -30 -560 11 -58 11 -204 54 -325 94 -352
118 -476 142 -685 131 -190 -9 -319 -48 -445 -135 -33 -22 -65 -41 -71 -41
-25 0 -259 -82 -314 -110 -32 -16 -86 -52 -120 -80 -104 -87 -245 -134 -405
-133 -220 0 -369 82 -486 267 -60 95 -106 146 -130 146 -46 0 -50 -166 -8
-321 45 -169 213 -367 374 -443 93 -44 150 -57 254 -57 174 0 342 56 547 181
43 27 66 36 68 28 21 -71 60 -174 82 -213 50 -88 137 -170 231 -216 102 -51
162 -108 202 -192 45 -97 53 -150 49 -319 -1 -84 -2 -230 0 -324 l2 -171 56
-89 c80 -128 133 -244 150 -326 8 -39 17 -75 20 -80 10 -16 34 -8 68 23 32 28
37 29 58 16 14 -9 52 -15 100 -15 97 -2 115 11 127 88 13 78 4 107 -43 149
-23 20 -78 73 -123 118 -143 143 -214 329 -169 446 12 32 49 76 130 157 63 62
126 134 140 159 25 47 46 143 46 214 0 20 4 37 9 37 5 0 62 -18 127 -41 138
-47 235 -101 288 -159 36 -40 37 -44 31 -93 -24 -202 -38 -273 -53 -289 -9 -9
-56 -30 -105 -47 -179 -63 -271 -122 -324 -210 -34 -57 -33 -88 4 -105 11 -5
25 -22 31 -38 17 -46 35 -44 131 17 111 70 204 105 296 111 97 7 109 10 144
40 21 17 36 44 47 80 9 30 28 83 44 117 15 34 36 88 45 120 9 31 19 57 23 57
4 0 21 -19 37 -42 108 -150 113 -246 14 -263 -23 -4 -56 -13 -73 -20 -46 -20
-125 -93 -132 -123 -4 -15 -17 -41 -30 -59 -60 -80 -49 -109 34 -93 100 19
221 67 287 114 16 11 68 41 115 66 124 66 128 75 112 270 -7 83 -15 164 -18
179 -6 27 -1 31 113 91 340 180 539 328 670 499 137 177 168 212 217 245 69
47 107 52 235 31 62 -11 122 -15 143 -11 52 9 201 125 233 181 41 69 35 78
-97 159 -151 91 -219 151 -251 218 -37 80 -162 193 -269 244 -21 10 -40 26
-44 36 -3 10 -28 36 -55 58 -27 22 -68 62 -90 90 -43 54 -44 55 -55 39z"/>
</g>
</svg>
